<svg data-v-fde0c5aa="" xmlns="http://www.w3.org/2000/svg" viewBox="20 110 280 80" class="iconLeft"><!----><defs data-v-fde0c5aa=""><!----></defs><rect data-v-fde0c5aa="" fill="transparent" x="0" y="0" width="300px" height="300px" class="logo-background-square"></rect><defs data-v-fde0c5aa=""><!----></defs><g data-v-fde0c5aa="" id="64ed9343-8dde-4334-963a-c4343105b008" fill="#ffffff" transform="matrix(2.2636012646532517,0,0,2.2636012646532517,107.56909157222111,124.33076131343397)"><path d="M6.72 11.03L6.72 11.03L6.71 10.68L6.68 10.33Q6.93 10.30 7.20 10.30L7.20 10.30Q7.84 10.30 8.09 10.58Q8.34 10.85 8.34 11.51L8.34 11.51Q8.34 15.78 6.90 18.17L6.90 18.17Q6.40 19.00 5.59 19.52Q4.79 20.03 3.77 20.03L3.77 20.03Q2.38 20.03 1.68 19.29Q0.98 18.54 0.98 17.62Q0.98 16.70 1.39 16.18Q1.81 15.65 2.42 15.65L2.42 15.65Q2.81 15.65 3.15 15.89L3.15 15.89Q2.55 16.72 2.55 17.53L2.55 17.53Q2.55 19.22 3.91 19.22Q5.26 19.22 5.96 17.63Q6.66 16.03 6.79 13.17L6.79 13.17Q6.29 14.08 5.53 14.55Q4.77 15.02 3.95 15.02L3.95 15.02Q2.63 15.02 1.70 13.93Q0.77 12.84 0.77 10.89L0.77 10.89Q0.77 8.20 2.07 6.24L2.07 6.24Q2.72 5.28 3.73 4.71Q4.75 4.14 6.05 4.14Q7.35 4.14 8.03 4.85Q8.71 5.56 8.71 6.56Q8.71 7.56 8.13 8.13Q7.55 8.69 6.75 8.69L6.75 8.69Q5.59 8.69 5.00 7.88L5.00 7.88Q5.38 7.98 5.71 7.98L5.71 7.98Q6.51 7.98 6.96 7.50Q7.42 7.03 7.42 6.41Q7.42 5.78 7 5.37Q6.58 4.96 5.81 4.96L5.81 4.96Q4.79 4.96 3.96 5.89Q3.12 6.83 2.69 8.16Q2.27 9.49 2.27 10.94Q2.27 12.39 2.89 13.22Q3.51 14.04 4.42 14.04Q5.33 14.04 6.03 13.22Q6.72 12.40 6.72 11.03ZM12.71 9.95Q12.31 10.65 12.09 11.39Q11.87 12.12 11.87 12.80Q11.87 13.47 12.17 13.94Q12.47 14.41 13.03 14.41L13.03 14.41Q13.82 14.41 14.50 13.55Q15.19 12.68 15.56 11.46Q15.93 10.23 15.93 9.19Q15.93 8.15 15.85 7.48L15.85 7.48Q16.18 7.45 16.27 7.45L16.27 7.45Q17.46 7.45 17.46 8.67L17.46 8.67Q17.46 8.93 17.12 10.83Q16.79 12.73 16.79 13.87Q16.79 15.01 17.22 15.89L17.22 15.89Q16.34 15.71 15.94 15.11Q15.54 14.52 15.54 13.40L15.54 13.40Q15.54 13.20 15.60 12.64L15.60 12.64Q15.22 13.97 14.27 14.78Q13.31 15.60 12.40 15.60Q11.48 15.60 10.92 14.90Q10.36 14.21 10.36 12.99Q10.36 11.76 10.82 10.59Q11.27 9.42 12.19 8.57Q13.10 7.71 14.24 7.71L14.24 7.71Q14.73 7.71 15.32 7.91L15.32 7.91Q14.49 8.12 13.80 8.68Q13.12 9.24 12.71 9.95ZM26.20 10.12Q25.83 10.78 25.58 11.80Q25.33 12.82 25.33 13.73Q25.33 14.64 25.41 15.43L25.41 15.43Q25.05 15.46 24.98 15.46L24.98 15.46Q23.76 15.46 23.76 14.27L23.76 14.27Q23.76 13.83 24.06 12.11Q24.36 10.39 24.36 9.53Q24.36 8.67 23.72 8.67L23.72 8.67Q22.92 8.67 22.09 10.21Q21.27 11.75 21.27 13.94L21.27 13.94Q21.27 14.64 21.35 15.43L21.35 15.43Q20.99 15.46 20.92 15.46L20.92 15.46Q19.70 15.46 19.70 14.27L19.70 14.27Q19.70 14.11 19.99 12.18Q20.27 10.25 20.27 9.12Q20.27 7.99 20.03 7.06L20.03 7.06Q20.87 7.38 21.20 7.98Q21.53 8.58 21.53 9.46L21.53 9.46Q21.53 9.91 21.43 10.60L21.43 10.60Q21.91 9.20 22.75 8.27Q23.59 7.35 24.29 7.35L24.29 7.35Q25.86 7.35 25.86 9.77L25.86 9.77Q26.38 8.65 27.06 8.00Q27.73 7.35 28.32 7.35L28.32 7.35Q29.18 7.35 29.53 7.86Q29.88 8.37 29.88 9.25Q29.88 10.12 29.60 11.70Q29.33 13.29 29.33 14.01Q29.33 14.73 29.51 15.06Q29.69 15.39 30.13 15.62L30.13 15.62Q29.95 15.64 29.61 15.64L29.61 15.64Q28.71 15.64 28.29 15.27Q27.86 14.90 27.86 14L27.86 14Q27.86 13.48 28.14 11.91Q28.42 10.33 28.42 9.59L28.42 9.59Q28.42 8.67 27.78 8.67L27.78 8.67Q27.41 8.67 26.99 9.06Q26.57 9.45 26.20 10.12ZM35.70 8.08L35.70 8.08Q34.86 8.08 34.28 9.04Q33.70 10.01 33.50 11.31L33.50 11.31L33.89 11.31Q34.64 11.31 35.18 11.10Q35.73 10.89 36.02 10.56L36.02 10.56Q36.58 9.91 36.58 9.10L36.58 9.10Q36.58 8.64 36.37 8.36Q36.15 8.08 35.70 8.08ZM37.67 13.75Q37.03 14.80 36.26 15.22Q35.49 15.64 34.48 15.64Q33.46 15.64 32.70 14.74Q31.95 13.85 31.95 12.22L31.95 12.22Q31.95 10.37 32.94 8.92L32.94 8.92Q33.43 8.22 34.22 7.78Q35.01 7.35 35.97 7.35L35.97 7.35Q38.07 7.35 38.07 9.38L38.07 9.38Q38.07 10.60 37.12 11.29Q36.18 11.98 34.93 11.98L34.93 11.98Q34.10 11.98 33.45 11.83L33.45 11.83Q33.43 11.97 33.43 12.26L33.43 12.26Q33.43 14.74 34.90 14.74L34.90 14.74Q36.29 14.74 37.16 13.37L37.16 13.37Q37.67 13.44 37.67 13.75L37.67 13.75ZM42.29 5.70L42.29 5.70L42.31 5.87Q42.31 6.40 41.91 9.35Q41.51 12.29 41.51 14.27L41.51 14.27Q41.51 15.15 41.59 15.64L41.59 15.64Q41.26 15.67 41.23 15.67L41.23 15.67Q40.60 15.67 40.29 15.38Q39.98 15.09 39.98 14.44Q39.98 13.79 40.45 10.46Q40.92 7.14 40.92 5.72Q40.92 4.30 40.73 3.86L40.73 3.86Q41.17 3.92 41.56 4.21Q41.94 4.49 42.14 4.97L42.14 4.97Q43.20 4.40 44.51 4.40Q45.82 4.40 46.57 5.20Q47.32 6.01 47.32 7.18L47.32 7.18Q47.32 8.68 46.23 9.88Q45.14 11.07 43.29 11.07L43.29 11.07Q42.87 11.07 42.52 11.02L42.52 11.02L42.48 10.57Q43.41 10.57 44.11 10.29Q44.81 10.01 45.18 9.55L45.18 9.55Q45.89 8.65 45.89 7.45L45.89 7.45Q45.89 6.58 45.34 6.00Q44.79 5.42 43.74 5.42L43.74 5.42Q43.11 5.42 42.29 5.70ZM48.47 14.41L48.47 14.41Q48.45 14.18 48.45 13.69Q48.45 13.19 48.92 9.44Q49.39 5.68 49.39 4.28Q49.39 2.88 49.22 2.46L49.22 2.46Q50.01 2.76 50.33 3.33Q50.65 3.91 50.65 4.72Q50.65 5.53 50.25 8.92Q49.84 12.31 49.84 14.38L49.84 14.38Q49.84 14.83 49.90 15.64L49.90 15.64Q49.13 15.58 48.80 15.27L48.80 15.27Q48.54 15.02 48.47 14.41ZM54.60 9.95Q54.19 10.65 53.98 11.39Q53.76 12.12 53.76 12.80Q53.76 13.47 54.06 13.94Q54.36 14.41 54.92 14.41L54.92 14.41Q55.71 14.41 56.39 13.55Q57.08 12.68 57.45 11.46Q57.82 10.23 57.82 9.19Q57.82 8.15 57.74 7.48L57.74 7.48Q58.07 7.45 58.16 7.45L58.16 7.45Q59.35 7.45 59.35 8.67L59.35 8.67Q59.35 8.93 59.01 10.83Q58.67 12.73 58.67 13.87Q58.67 15.01 59.11 15.89L59.11 15.89Q58.23 15.71 57.83 15.11Q57.43 14.52 57.43 13.40L57.43 13.40Q57.43 13.20 57.48 12.64L57.48 12.64Q57.11 13.97 56.15 14.78Q55.20 15.60 54.29 15.60Q53.37 15.60 52.81 14.90Q52.25 14.21 52.25 12.99Q52.25 11.76 52.70 10.59Q53.16 9.42 54.08 8.57Q54.99 7.71 56.13 7.71L56.13 7.71Q56.62 7.71 57.20 7.91L57.20 7.91Q56.38 8.12 55.69 8.68Q55.01 9.24 54.60 9.95ZM67.34 8.32L67.34 8.32Q67.34 8.81 66.92 9.67Q66.50 10.54 65.90 11.58Q65.30 12.61 64.69 13.78Q64.09 14.95 63.67 16.35Q63.25 17.74 63.25 19.01L63.25 19.01Q63.25 19.64 63.35 20.22L63.35 20.22Q62.45 20.01 62.14 19.59Q61.82 19.18 61.82 18.62L61.82 18.62Q61.82 17.82 62.80 15.58L62.80 15.58Q62.59 14.71 62.29 12.86Q61.98 11.00 61.66 9.63Q61.35 8.26 60.94 7.59L60.94 7.59Q61.47 7.22 61.85 7.22L61.85 7.22Q62.58 7.22 62.85 7.97Q63.11 8.72 63.32 10.84Q63.52 12.95 63.73 13.94L63.73 13.94Q66.47 8.78 66.47 7.04L66.47 7.04Q67.34 7.63 67.34 8.32Z"></path></g><defs data-v-fde0c5aa=""><linearGradient data-v-fde0c5aa="" gradientTransform="rotate(25)" id="6904648f-f354-4606-a571-3cf7f62caab4" x1="0%" y1="0%" x2="100%" y2="0%"><stop data-v-fde0c5aa="" offset="0%" stop-color="#177775" stop-opacity="1"></stop><stop data-v-fde0c5aa="" offset="100%" stop-color="#28D2BF" stop-opacity="1"></stop></linearGradient></defs><g data-v-fde0c5aa="" id="e480cba5-8d76-4a88-903b-3e207ab51bbb" stroke="none" fill="url(#6904648f-f354-4606-a571-3cf7f62caab4)" transform="matrix(0.9571799756747372,0,0,0.9571799756747372,40,119.84883076624578)"><defs><style></style></defs><path d="M31.5 0C14.131 0 0 14.131 0 31.5S14.131 63 31.5 63c10.605 0 20.423-5.292 26.281-14.156.456-.69.252-1.636-.437-2.094L34.53 31.562l23.563-14.03c.71-.424.952-1.352.531-2.063C52.975 5.915 42.581 0 31.5 0zm0 3c9.527 0 18.464 4.85 23.719 12.75L30.937 30.188a1.489 1.489 0 00-.718 1.25 1.48 1.48 0 00.656 1.28l23.531 15.688C49.034 55.687 40.596 60 31.5 60 15.785 60 3 47.215 3 31.5S15.785 3 31.5 3zm-2.906 7.344a6.292 6.292 0 00-6.282 6.281c0 3.46 2.82 6.281 6.282 6.281 3.46 0 6.281-2.821 6.281-6.281 0-3.461-2.821-6.281-6.281-6.281zm0 3a3.289 3.289 0 013.281 3.281 3.29 3.29 0 01-3.281 3.281 3.289 3.289 0 01-3.282-3.281 3.288 3.288 0 013.282-3.281z"></path></g><!----></svg>