<svg xmlns="http://www.w3.org/2000/svg" width="70" height="70" viewBox="5 -5 50 70">
  <g fill="url(#gradient)">
    <path d="M31.5 0C14.131 0 0 14.131 0 31.5S14.131 63 31.5 63c10.605 0 20.423-5.292 26.281-14.156.456-.69.252-1.636-.437-2.094L34.53 31.562l23.563-14.03c.71-.424.952-1.352.531-2.063C52.975 5.915 42.581 0 31.5 0zm0 3c9.527 0 18.464 4.85 23.719 12.75L30.937 30.188a1.489 1.489 0 00-.718 1.25 1.48 1.48 0 00.656 1.28l23.531 15.688C49.034 55.687 40.596 60 31.5 60 15.785 60 3 47.215 3 31.5S15.785 3 31.5 3zm-2.906 7.344a6.292 6.292 0 00-6.282 6.281c0 3.46 2.82 6.281 6.282 6.281 3.46 0 6.281-2.821 6.281-6.281 0-3.461-2.821-6.281-6.281-6.281zm0 3a3.289 3.289 0 013.281 3.281 3.29 3.29 0 01-3.281 3.281 3.289 3.289 0 01-3.282-3.281 3.288 3.288 0 013.282-3.281z"></path>
  </g>
  <defs>
    <linearGradient id="gradient" gradientTransform="rotate(25)" x1="0%" y1="0%" x2="100%" y2="0%">
      <stop offset="0%" stop-color="#177775"></stop>
      <stop offset="100%" stop-color="#28D2BF"></stop>
    </linearGradient>
  </defs>
</svg>
